<svg width="16" height="20" viewBox="0 0 16 20" fill="none" xmlns="http://www.w3.org/2000/svg">
<path fill-rule="evenodd" clip-rule="evenodd" d="M9.5 4V10C9.5 10.8284 8.82843 11.5 8 11.5C7.17157 11.5 6.5 10.8284 6.5 10V4C6.5 3.17157 7.17157 2.5 8 2.5C8.82843 2.5 9.5 3.17157 9.5 4ZM5 4C5 2.34315 6.34315 1 8 1C9.65685 1 11 2.34315 11 4V10C11 11.6569 9.65685 13 8 13C6.34315 13 5 11.6569 5 10V4ZM12 19V17.5H8.75V15.9536C11.7097 15.5845 14 13.0597 14 10V8H12.5V10C12.5 12.4853 10.4853 14.5 8 14.5C5.51472 14.5 3.5 12.4853 3.5 10V8H2V10C2 13.0597 4.29027 15.5845 7.25 15.9536V17.5H4V19H7.25H8.75H12Z" fill="black" fill-opacity="0.5"/>
</svg>
