<svg width="32" height="32" viewBox="0 0 32 32" fill="none" xmlns="http://www.w3.org/2000/svg">
<path d="M4 26C4 27.1046 4.89543 28 6 28H26C27.1046 28 28 27.1046 28 26V21.5C28 20.6716 27.3284 20 26.5 20C25.6716 20 25 20.6716 25 21.5V25H7V7H10.5C11.3284 7 12 6.32843 12 5.5C12 4.67157 11.3284 4 10.5 4H6C4.89543 4 4 4.89543 4 6V26Z" fill="black"/>
<path d="M17.5 4C16.6716 4 16 4.67157 16 5.5C16 6.32843 16.6716 7 17.5 7H22.8788L12.0001 17.8787C11.4143 18.4645 11.4143 19.4142 12.0001 20C12.5859 20.5858 13.5356 20.5858 14.1214 20L25 9.12143V14.5C25 15.3284 25.6716 16 26.5 16C27.3284 16 28 15.3284 28 14.5V6C28 4.89543 27.1046 4 26 4H17.5Z" fill="black"/>
</svg>
